<svg width="76" height="29" viewBox="0 0 76 29" fill="none" xmlns="http://www.w3.org/2000/svg">
<rect width="76" height="28.38" rx="4" fill="#F8F8F2"/>
<g>
<path d="M13.204 13.884L12.652 12.636L12.4 13.884L11.584 18H10.252L12.076 9.18H12.22L14.644 13.944L15.364 15.54L16.084 13.944L18.46 9.18H18.592L20.488 18H19.168L18.28 13.884L18.016 12.636L17.536 13.884L15.4 18H15.328L13.204 13.884ZM24.2984 9.168L28.5464 18H26.9984L26.2424 16.272H22.1984L21.4424 18H19.9424L24.1664 9.168H24.2984ZM23.6984 12.924L22.7384 15.06H25.7144L24.7664 12.936L24.2504 11.724H24.2264L23.6984 12.924ZM28.2412 9.18H29.5852V18H28.2412V9.18Z" fill="#282A36"/>
<path d="M33.6406 18.12C33.1606 18.12 32.6846 18.036 32.2126 17.868C31.7406 17.7 31.4006 17.512 31.1926 17.304L31.8286 16.164C31.9966 16.316 32.2566 16.476 32.6086 16.644C32.9686 16.804 33.3126 16.884 33.6406 16.884C34.0646 16.884 34.4086 16.784 34.6726 16.584C34.9446 16.384 35.0806 16.108 35.0806 15.756C35.0806 15.484 35.0086 15.248 34.8646 15.048C34.7206 14.848 34.5446 14.684 34.3366 14.556C34.1286 14.42 33.8326 14.256 33.4486 14.064C32.9926 13.84 32.6806 13.672 32.5126 13.56C31.7366 13.04 31.3486 12.32 31.3486 11.4C31.3486 10.64 31.6006 10.06 32.1046 9.66C32.6086 9.252 33.2446 9.048 34.0126 9.048C34.8366 9.048 35.5366 9.284 36.1126 9.756L35.4766 10.848C35.3246 10.688 35.1086 10.552 34.8286 10.44C34.5566 10.32 34.2646 10.26 33.9526 10.26C33.5526 10.26 33.2366 10.352 33.0046 10.536C32.7806 10.712 32.6686 10.976 32.6686 11.328C32.6686 11.576 32.7406 11.8 32.8846 12C33.0286 12.192 33.2086 12.36 33.4246 12.504C33.6486 12.648 33.9486 12.824 34.3246 13.032C34.6846 13.232 34.9606 13.392 35.1526 13.512C35.3446 13.624 35.5246 13.76 35.6926 13.92C35.9246 14.128 36.1126 14.376 36.2566 14.664C36.4006 14.952 36.4726 15.268 36.4726 15.612C36.4726 16.148 36.3486 16.604 36.1006 16.98C35.8606 17.356 35.5246 17.64 35.0926 17.832C34.6686 18.024 34.1846 18.12 33.6406 18.12ZM38.5172 9.18H40.4612C41.5572 9.18 42.3572 9.416 42.8612 9.888C43.3732 10.352 43.6292 10.992 43.6292 11.808C43.6292 12.752 43.3532 13.476 42.8012 13.98C42.2492 14.484 41.4292 14.736 40.3412 14.736H39.8732V18H38.5172V9.18ZM40.3772 13.548C41.0812 13.548 41.5732 13.392 41.8532 13.08C42.1332 12.768 42.2732 12.392 42.2732 11.952C42.2732 11.48 42.1372 11.096 41.8652 10.8C41.5932 10.504 41.1372 10.356 40.4972 10.356H39.8732V13.548H40.3772ZM48.0523 9.168L52.3003 18H50.7523L49.9963 16.272H45.9523L45.1963 18H43.6963L47.9203 9.168H48.0523ZM47.4523 12.924L46.4923 15.06H49.4683L48.5203 12.936L48.0043 11.724H47.9803L47.4523 12.924ZM57.2838 18.084C56.3718 18.084 55.5798 17.88 54.9078 17.472C54.2438 17.064 53.7358 16.52 53.3838 15.84C53.0318 15.152 52.8558 14.396 52.8558 13.572C52.8558 12.7 53.0438 11.92 53.4198 11.232C53.8038 10.544 54.3398 10.008 55.0278 9.624C55.7158 9.232 56.4958 9.036 57.3678 9.036C57.7598 9.036 58.1238 9.08 58.4598 9.168C58.8038 9.248 59.0878 9.344 59.3118 9.456C59.5358 9.56 59.6838 9.648 59.7558 9.72L59.1678 10.92C58.6798 10.488 58.0438 10.272 57.2598 10.272C56.7078 10.272 56.2078 10.408 55.7598 10.68C55.3118 10.952 54.9598 11.34 54.7038 11.844C54.4478 12.348 54.3198 12.932 54.3198 13.596C54.3198 14.204 54.4318 14.756 54.6558 15.252C54.8878 15.748 55.2238 16.14 55.6638 16.428C56.1038 16.716 56.6278 16.86 57.2358 16.86C57.9398 16.86 58.6198 16.66 59.2758 16.26L59.6718 17.4C59.4958 17.56 59.1718 17.716 58.6998 17.868C58.2358 18.012 57.7638 18.084 57.2838 18.084ZM61.6568 9.18H65.5208V10.356H62.9888V12.792H65.0288V13.992H62.9888V16.812H65.9168V18H61.6568V9.18Z" fill="#44475A"/>
<path d="M28.2 6H29.58V21H28.2V6Z" fill="#6272A4"/>
<rect x="28.2" y="21" width="38" height="1.38" fill="#6272A4"/>
</g>
</svg>
