<svg width="32" height="32" viewBox="0 0 32 32" fill="none" xmlns="http://www.w3.org/2000/svg">
<g clip-path="url(#clip0_948_331)">
<rect width="32" height="32" rx="4" fill="#F8F8F2"/>
<path d="M14.204 14.884L13.652 13.636L13.4 14.884L12.584 19H11.252L13.076 10.18H13.22L15.644 14.944L16.364 16.54L17.084 14.944L19.46 10.18H19.592L21.488 19H20.168L19.28 14.884L19.016 13.636L18.536 14.884L16.4 19H16.328L14.204 14.884ZM24.4584 19.12C23.9784 19.12 23.5024 19.036 23.0304 18.868C22.5584 18.7 22.2184 18.512 22.0104 18.304L22.6464 17.164C22.8144 17.316 23.0744 17.476 23.4264 17.644C23.7864 17.804 24.1304 17.884 24.4584 17.884C24.8824 17.884 25.2264 17.784 25.4904 17.584C25.7624 17.384 25.8984 17.108 25.8984 16.756C25.8984 16.484 25.8264 16.248 25.6824 16.048C25.5384 15.848 25.3624 15.684 25.1544 15.556C24.9464 15.42 24.6504 15.256 24.2664 15.064C23.8104 14.84 23.4984 14.672 23.3304 14.56C22.5544 14.04 22.1664 13.32 22.1664 12.4C22.1664 11.64 22.4184 11.06 22.9224 10.66C23.4264 10.252 24.0624 10.048 24.8304 10.048C25.6544 10.048 26.3544 10.284 26.9304 10.756L26.2944 11.848C26.1424 11.688 25.9264 11.552 25.6464 11.44C25.3744 11.32 25.0824 11.26 24.7704 11.26C24.3704 11.26 24.0544 11.352 23.8224 11.536C23.5984 11.712 23.4864 11.976 23.4864 12.328C23.4864 12.576 23.5584 12.8 23.7024 13C23.8464 13.192 24.0264 13.36 24.2424 13.504C24.4664 13.648 24.7664 13.824 25.1424 14.032C25.5024 14.232 25.7784 14.392 25.9704 14.512C26.1624 14.624 26.3424 14.76 26.5104 14.92C26.7424 15.128 26.9304 15.376 27.0744 15.664C27.2184 15.952 27.2904 16.268 27.2904 16.612C27.2904 17.148 27.1664 17.604 26.9184 17.98C26.6784 18.356 26.3424 18.64 25.9104 18.832C25.4864 19.024 25.0024 19.12 24.4584 19.12Z" fill="#282A36"/>
<path d="M5 7H9V22H5V7Z" fill="#6272A4"/>
<rect x="5" y="22" width="38" height="4" fill="#6272A4"/>
</g>
<defs>
<clipPath id="clip0_948_331">
<rect width="32" height="32" rx="4" fill="white"/>
</clipPath>
</defs>
</svg>
